<svg xmlns="http://www.w3.org/2000/svg" xmlns:svg="http://www.w3.org/2000/svg" viewBox="0 0 640 480" >
<!-- Created with SVG-edit - http://svg-edit.googlecode.com/ -->
<g>
<title>Layer 1</title>
{'depth': 't', 'type': 'p'}
<rect id="Zp1t2p2t" stroke="#000000" height="10" width="20" y="160" x="60" fill="#ffffff"/>
{'depth': 't', 'type': 'n'}
<rect id="Zn1t2n2t" stroke="#000000" height="10" width="20" y="240" x="60" fill="#ffffff"/>
{'depth': 'b', 'type': 'n'}
<rect id="Zn1b2n2b" stroke="#000000" height="10" width="20" y="320" x="60" fill="#ffffff"/>
{'depth': 'b', 'type': 'p'}
<rect id="Zp1b2p2b" stroke="#000000" height="10" width="20" y="400" x="60" fill="#ffffff"/>
{'depth': 't', 'type': 'p'}
<rect id="Zp2t2p3t" stroke="#000000" height="10" width="20" y="160" x="140" fill="#ffffff"/>
{'depth': 't', 'type': 'n'}
<rect id="Zn2t2n3t" stroke="#000000" height="10" width="20" y="240" x="140" fill="#ffffff"/>
{'depth': 'b', 'type': 'n'}
<rect id="Zn2b2n3b" stroke="#000000" height="10" width="20" y="320" x="140" fill="#ffffff"/>
{'depth': 'b', 'type': 'p'}
<rect id="Zp2b2p3b" stroke="#000000" height="10" width="20" y="400" x="140" fill="#ffffff"/>
{'depth': 't', 'type': 'p'}
<rect id="Zp3t2p4t" stroke="#000000" height="10" width="20" y="160" x="220" fill="#ffffff"/>
{'depth': 't', 'type': 'n'}
<rect id="Zn3t2n4t" stroke="#000000" height="10" width="20" y="240" x="220" fill="#ffffff"/>
{'depth': 'b', 'type': 'n'}
<rect id="Zn3b2n4b" stroke="#000000" height="10" width="20" y="320" x="220" fill="#ffffff"/>
{'depth': 'b', 'type': 'p'}
<rect id="Zp3b2p4b" stroke="#000000" height="10" width="20" y="400" x="220" fill="#ffffff"/>
{'depth': 't', 'type': 'p'}
<rect id="Zp4t2p5t" stroke="#000000" height="10" width="20" y="160" x="300" fill="#ffffff"/>
{'depth': 't', 'type': 'n'}
<rect id="Zn4t2n5t" stroke="#000000" height="10" width="20" y="240" x="300" fill="#ffffff"/>
{'depth': 'b', 'type': 'n'}
<rect id="Zn4b2n5b" stroke="#000000" height="10" width="20" y="320" x="300" fill="#ffffff"/>
{'depth': 'b', 'type': 'p'}
<rect id="Zp4b2p5b" stroke="#000000" height="10" width="20" y="400" x="300" fill="#ffffff"/>
{'depth': 't', 'type': 'p'}
<rect id="Zp5t2p6t" stroke="#000000" height="10" width="20" y="160" x="380" fill="#ffffff"/>
{'depth': 't', 'type': 'n'}
<rect id="Zn5t2n6t" stroke="#000000" height="10" width="20" y="240" x="380" fill="#ffffff"/>
{'depth': 'b', 'type': 'n'}
<rect id="Zn5b2n6b" stroke="#000000" height="10" width="20" y="320" x="380" fill="#ffffff"/>
{'depth': 'b', 'type': 'p'}
<rect id="Zp5b2p6b" stroke="#000000" height="10" width="20" y="400" x="380" fill="#ffffff"/>
{'depth': 't', 'type': 'p'}
<rect id="Zp6t2p7t" stroke="#000000" height="10" width="20" y="160" x="460" fill="#ffffff"/>
{'depth': 't', 'type': 'n'}
<rect id="Zn6t2n7t" stroke="#000000" height="10" width="20" y="240" x="460" fill="#ffffff"/>
{'depth': 'b', 'type': 'n'}
<rect id="Zn6b2n7b" stroke="#000000" height="10" width="20" y="320" x="460" fill="#ffffff"/>
{'depth': 'b', 'type': 'p'}
<rect id="Zp6b2p7b" stroke="#000000" height="10" width="20" y="400" x="460" fill="#ffffff"/>
{'depth': 't', 'type': 'p'}
<rect id="Zp7t2p8t" stroke="#000000" height="10" width="20" y="160" x="540" fill="#ffffff"/>
{'depth': 't', 'type': 'n'}
<rect id="Zn7t2n8t" stroke="#000000" height="10" width="20" y="240" x="540" fill="#ffffff"/>
{'depth': 'b', 'type': 'n'}
<rect id="Zn7b2n8b" stroke="#000000" height="10" width="20" y="320" x="540" fill="#ffffff"/>
{'depth': 'b', 'type': 'p'}
<rect id="Zp7b2p8b" stroke="#000000" height="10" width="20" y="400" x="540" fill="#ffffff"/>
<rect id="Zp1t2n1t" stroke="#000000" height="20" width="10" y="195" x="25" fill="#ffffff"/>
<rect id="Zn1t2n1b" stroke="#000000" height="20" width="10" y="275" x="25" fill="#ffffff"/>
<rect id="Zn1b2p1b" stroke="#000000" height="20" width="10" y="355" x="25" fill="#ffffff"/>
<circle cx="30" cy="165" r="10" stroke="black" stroke-width="2" fill="red" />
<circle cx="30" cy="165" r="6" stroke="black" stroke-width="2" fill="white" />
<circle cx="30" cy="245" r="10" stroke="black" stroke-width="2" fill="red" />
<circle cx="30" cy="245" r="6" stroke="black" stroke-width="2" fill="white" />
<circle cx="30" cy="325" r="10" stroke="black" stroke-width="2" fill="red" />
<circle cx="30" cy="325" r="6" stroke="black" stroke-width="2" fill="white" />
<circle cx="30" cy="405" r="10" stroke="black" stroke-width="2" fill="red" />
<circle cx="30" cy="405" r="6" stroke="black" stroke-width="2" fill="white" />
<rect id="Zp2t2n2t" stroke="#000000" height="20" width="10" y="195" x="105" fill="#ffffff"/>
<rect id="Zn2t2n2b" stroke="#000000" height="20" width="10" y="275" x="105" fill="#ffffff"/>
<rect id="Zn2b2p2b" stroke="#000000" height="20" width="10" y="355" x="105" fill="#ffffff"/>
<circle cx="110" cy="165" r="10" stroke="black" stroke-width="2" fill="red" />
<circle cx="110" cy="165" r="6" stroke="black" stroke-width="2" fill="white" />
<circle cx="110" cy="245" r="10" stroke="black" stroke-width="2" fill="red" />
<circle cx="110" cy="245" r="6" stroke="black" stroke-width="2" fill="white" />
<circle cx="110" cy="325" r="10" stroke="black" stroke-width="2" fill="red" />
<circle cx="110" cy="325" r="6" stroke="black" stroke-width="2" fill="white" />
<circle cx="110" cy="405" r="10" stroke="black" stroke-width="2" fill="red" />
<circle cx="110" cy="405" r="6" stroke="black" stroke-width="2" fill="white" />
<rect id="Zp3t2n3t" stroke="#000000" height="20" width="10" y="195" x="185" fill="#ffffff"/>
<rect id="Zn3t2n3b" stroke="#000000" height="20" width="10" y="275" x="185" fill="#ffffff"/>
<rect id="Zn3b2p3b" stroke="#000000" height="20" width="10" y="355" x="185" fill="#ffffff"/>
<circle cx="190" cy="165" r="10" stroke="black" stroke-width="2" fill="red" />
<circle cx="190" cy="165" r="6" stroke="black" stroke-width="2" fill="white" />
<circle cx="190" cy="245" r="10" stroke="black" stroke-width="2" fill="red" />
<circle cx="190" cy="245" r="6" stroke="black" stroke-width="2" fill="white" />
<circle cx="190" cy="325" r="10" stroke="black" stroke-width="2" fill="red" />
<circle cx="190" cy="325" r="6" stroke="black" stroke-width="2" fill="white" />
<circle cx="190" cy="405" r="10" stroke="black" stroke-width="2" fill="red" />
<circle cx="190" cy="405" r="6" stroke="black" stroke-width="2" fill="white" />
<rect id="Zp4t2n4t" stroke="#000000" height="20" width="10" y="195" x="265" fill="#ffffff"/>
<rect id="Zn4t2n4b" stroke="#000000" height="20" width="10" y="275" x="265" fill="#ffffff"/>
<rect id="Zn4b2p4b" stroke="#000000" height="20" width="10" y="355" x="265" fill="#ffffff"/>
<circle cx="270" cy="165" r="10" stroke="black" stroke-width="2" fill="red" />
<circle cx="270" cy="165" r="6" stroke="black" stroke-width="2" fill="white" />
<circle cx="270" cy="245" r="10" stroke="black" stroke-width="2" fill="red" />
<circle cx="270" cy="245" r="6" stroke="black" stroke-width="2" fill="white" />
<circle cx="270" cy="325" r="10" stroke="black" stroke-width="2" fill="red" />
<circle cx="270" cy="325" r="6" stroke="black" stroke-width="2" fill="white" />
<circle cx="270" cy="405" r="10" stroke="black" stroke-width="2" fill="red" />
<circle cx="270" cy="405" r="6" stroke="black" stroke-width="2" fill="white" />
<rect id="Zp5t2n5t" stroke="#000000" height="20" width="10" y="195" x="345" fill="#ffffff"/>
<rect id="Zn5t2n5b" stroke="#000000" height="20" width="10" y="275" x="345" fill="#ffffff"/>
<rect id="Zn5b2p5b" stroke="#000000" height="20" width="10" y="355" x="345" fill="#ffffff"/>
<circle cx="350" cy="165" r="10" stroke="black" stroke-width="2" fill="red" />
<circle cx="350" cy="165" r="6" stroke="black" stroke-width="2" fill="white" />
<circle cx="350" cy="245" r="10" stroke="black" stroke-width="2" fill="red" />
<circle cx="350" cy="245" r="6" stroke="black" stroke-width="2" fill="white" />
<circle cx="350" cy="325" r="10" stroke="black" stroke-width="2" fill="red" />
<circle cx="350" cy="325" r="6" stroke="black" stroke-width="2" fill="white" />
<circle cx="350" cy="405" r="10" stroke="black" stroke-width="2" fill="red" />
<circle cx="350" cy="405" r="6" stroke="black" stroke-width="2" fill="white" />
<rect id="Zp6t2n6t" stroke="#000000" height="20" width="10" y="195" x="425" fill="#ffffff"/>
<rect id="Zn6t2n6b" stroke="#000000" height="20" width="10" y="275" x="425" fill="#ffffff"/>
<rect id="Zn6b2p6b" stroke="#000000" height="20" width="10" y="355" x="425" fill="#ffffff"/>
<circle cx="430" cy="165" r="10" stroke="black" stroke-width="2" fill="red" />
<circle cx="430" cy="165" r="6" stroke="black" stroke-width="2" fill="white" />
<circle cx="430" cy="245" r="10" stroke="black" stroke-width="2" fill="red" />
<circle cx="430" cy="245" r="6" stroke="black" stroke-width="2" fill="white" />
<circle cx="430" cy="325" r="10" stroke="black" stroke-width="2" fill="red" />
<circle cx="430" cy="325" r="6" stroke="black" stroke-width="2" fill="white" />
<circle cx="430" cy="405" r="10" stroke="black" stroke-width="2" fill="red" />
<circle cx="430" cy="405" r="6" stroke="black" stroke-width="2" fill="white" />
<rect id="Zp7t2n7t" stroke="#000000" height="20" width="10" y="195" x="505" fill="#ffffff"/>
<rect id="Zn7t2n7b" stroke="#000000" height="20" width="10" y="275" x="505" fill="#ffffff"/>
<rect id="Zn7b2p7b" stroke="#000000" height="20" width="10" y="355" x="505" fill="#ffffff"/>
<circle cx="510" cy="165" r="10" stroke="black" stroke-width="2" fill="red" />
<circle cx="510" cy="165" r="6" stroke="black" stroke-width="2" fill="white" />
<circle cx="510" cy="245" r="10" stroke="black" stroke-width="2" fill="red" />
<circle cx="510" cy="245" r="6" stroke="black" stroke-width="2" fill="white" />
<circle cx="510" cy="325" r="10" stroke="black" stroke-width="2" fill="red" />
<circle cx="510" cy="325" r="6" stroke="black" stroke-width="2" fill="white" />
<circle cx="510" cy="405" r="10" stroke="black" stroke-width="2" fill="red" />
<circle cx="510" cy="405" r="6" stroke="black" stroke-width="2" fill="white" />
<rect id="Zp8t2n8t" stroke="#000000" height="20" width="10" y="195" x="585" fill="#ffffff"/>
<rect id="Zn8t2n8b" stroke="#000000" height="20" width="10" y="275" x="585" fill="#ffffff"/>
<rect id="Zn8b2p8b" stroke="#000000" height="20" width="10" y="355" x="585" fill="#ffffff"/>
<circle cx="590" cy="165" r="10" stroke="black" stroke-width="2" fill="red" />
<circle cx="590" cy="165" r="6" stroke="black" stroke-width="2" fill="white" />
<circle cx="590" cy="245" r="10" stroke="black" stroke-width="2" fill="red" />
<circle cx="590" cy="245" r="6" stroke="black" stroke-width="2" fill="white" />
<circle cx="590" cy="325" r="10" stroke="black" stroke-width="2" fill="red" />
<circle cx="590" cy="325" r="6" stroke="black" stroke-width="2" fill="white" />
<circle cx="590" cy="405" r="10" stroke="black" stroke-width="2" fill="red" />
<circle cx="590" cy="405" r="6" stroke="black" stroke-width="2" fill="white" />
<circle cx="70" cy="205" r="10" stroke="black" stroke-width="2" fill="red" />
<circle cx="70" cy="205" r="6" stroke="black" stroke-width="2" fill="white" />
<circle cx="150" cy="205" r="10" stroke="black" stroke-width="2" fill="red" />
<circle cx="150" cy="205" r="6" stroke="black" stroke-width="2" fill="white" />
<circle cx="230" cy="205" r="10" stroke="black" stroke-width="2" fill="red" />
<circle cx="230" cy="205" r="6" stroke="black" stroke-width="2" fill="white" />
<circle cx="310" cy="205" r="10" stroke="black" stroke-width="2" fill="red" />
<circle cx="310" cy="205" r="6" stroke="black" stroke-width="2" fill="white" />
<circle cx="390" cy="205" r="10" stroke="black" stroke-width="2" fill="red" />
<circle cx="390" cy="205" r="6" stroke="black" stroke-width="2" fill="white" />
<circle cx="470" cy="205" r="10" stroke="black" stroke-width="2" fill="red" />
<circle cx="470" cy="205" r="6" stroke="black" stroke-width="2" fill="white" />
<circle cx="550" cy="205" r="10" stroke="black" stroke-width="2" fill="red" />
<circle cx="550" cy="205" r="6" stroke="black" stroke-width="2" fill="white" />
<circle cx="70" cy="285" r="10" stroke="black" stroke-width="2" fill="red" />
<circle cx="70" cy="285" r="6" stroke="black" stroke-width="2" fill="white" />
<circle cx="150" cy="285" r="10" stroke="black" stroke-width="2" fill="red" />
<circle cx="150" cy="285" r="6" stroke="black" stroke-width="2" fill="white" />
<circle cx="230" cy="285" r="10" stroke="black" stroke-width="2" fill="red" />
<circle cx="230" cy="285" r="6" stroke="black" stroke-width="2" fill="white" />
<circle cx="310" cy="285" r="10" stroke="black" stroke-width="2" fill="red" />
<circle cx="310" cy="285" r="6" stroke="black" stroke-width="2" fill="white" />
<circle cx="390" cy="285" r="10" stroke="black" stroke-width="2" fill="red" />
<circle cx="390" cy="285" r="6" stroke="black" stroke-width="2" fill="white" />
<circle cx="470" cy="285" r="10" stroke="black" stroke-width="2" fill="red" />
<circle cx="470" cy="285" r="6" stroke="black" stroke-width="2" fill="white" />
<circle cx="550" cy="285" r="10" stroke="black" stroke-width="2" fill="red" />
<circle cx="550" cy="285" r="6" stroke="black" stroke-width="2" fill="white" />
<circle cx="70" cy="365" r="10" stroke="black" stroke-width="2" fill="red" />
<circle cx="70" cy="365" r="6" stroke="black" stroke-width="2" fill="white" />
<circle cx="150" cy="365" r="10" stroke="black" stroke-width="2" fill="red" />
<circle cx="150" cy="365" r="6" stroke="black" stroke-width="2" fill="white" />
<circle cx="230" cy="365" r="10" stroke="black" stroke-width="2" fill="red" />
<circle cx="230" cy="365" r="6" stroke="black" stroke-width="2" fill="white" />
<circle cx="310" cy="365" r="10" stroke="black" stroke-width="2" fill="red" />
<circle cx="310" cy="365" r="6" stroke="black" stroke-width="2" fill="white" />
<circle cx="390" cy="365" r="10" stroke="black" stroke-width="2" fill="red" />
<circle cx="390" cy="365" r="6" stroke="black" stroke-width="2" fill="white" />
<circle cx="470" cy="365" r="10" stroke="black" stroke-width="2" fill="red" />
<circle cx="470" cy="365" r="6" stroke="black" stroke-width="2" fill="white" />
<circle cx="550" cy="365" r="10" stroke="black" stroke-width="2" fill="red" />
<circle cx="550" cy="365" r="6" stroke="black" stroke-width="2" fill="white" />
<rect fill="#ffffff" x="40" y="180" width="20" height="10" transform="rotate(45, 50 ,185) " id="Zp1t2x1t" stroke="#000000"/>
<rect fill="#ffffff" x="120" y="260" width="20" height="10" transform="rotate(45, 130 ,265) " id="ZZ" stroke="#000000"/>
</g>
</svg>
